<?xml version="1.0" encoding="utf-8"?>
<svg xmlns="http://www.w3.org/2000/svg" xmlns:xlink="http://www.w3.org/1999/xlink">
    <symbol id="git" viewBox="0 0 26 22">
       <path  d="M25.047,17.422C22.984,21.594,17.313,22,13.25,22c-4.125,0-10.141-0.359-12.281-4.578
		C0.172,15.844,0,13.984,0,12.25c0-2.281,0.625-4.438,2.125-6.188C1.844,5.203,1.703,4.297,1.703,3.406
		C1.703,2.234,1.969,1.063,2.5,0c2.469,0,4.047,1.078,5.922,2.547C10,2.172,11.625,2,13.25,2c1.469,0,2.953,0.156,4.375,0.5
		C19.484,1.047,21.063,0,23.5,0c0.531,1.063,0.797,2.234,0.797,3.406c0,0.891-0.141,1.781-0.422,2.625
		C25.375,7.797,26,9.969,26,12.25C26,13.984,25.828,15.828,25.047,17.422z M18.5,10.5c-1.031,0-2.016,0.188-3.047,0.328
		C14.641,10.953,13.828,11,13,11s-1.641-0.047-2.453-0.172C9.531,10.688,8.531,10.5,7.5,10.5c-2.547,0-4,2.109-4,4.5
		c0,4.781,4.375,5.516,8.188,5.516h2.625c3.813,0,8.188-0.734,8.188-5.516C22.5,12.609,21.047,10.5,18.5,10.5z M8,18
		c-1.406,0-2-1.859-2-3s0.594-3,2-3s2,1.859,2,3S9.406,18,8,18z M18,18c-1.406,0-2-1.859-2-3s0.594-3,2-3s2,1.859,2,3
		S19.406,18,18,18z"/>
    </symbol>
    <symbol id="in" viewBox="0 0 24 22.938">
      <path  d="M2.875,5.344H2.844C1.109,5.344,0,4.156,0,2.672C0,1.156,1.156,0,2.906,0c1.766,0,2.859,1.156,2.875,2.672
		C5.797,4.156,4.672,5.344,2.875,5.344z M5.453,22.938H0.297V7.453h5.156V22.938z M24,22.938h-5.141v-8.281
		c0-2.078-0.75-3.5-2.609-3.5c-1.422,0-2.266,0.953-2.641,1.875c-0.125,0.344-0.172,0.797-0.172,1.266v8.641H8.297
		c0.063-14.031,0-15.484,0-15.484h5.141v2.25h-0.031c0.672-1.063,1.891-2.609,4.672-2.609c3.391,0,5.922,2.219,5.922,6.969V22.938z"
		/>
    </symbol>
    <symbol id="vk" viewBox="0 0 30.011 17.123">
        <path  d="M27.625,5.832c-3.031,4.031-3.359,3.656-0.859,5.984c2.406,2.234,2.906,3.313,2.984,3.453
		c0,0,1,1.75-1.109,1.766l-4,0.063c-0.859,0.172-2-0.609-2-0.609c-1.5-1.031-2.906-3.703-4-3.359c0,0-1.125,0.359-1.094,2.766
		c0.016,0.516-0.234,0.797-0.234,0.797s-0.281,0.297-0.828,0.344h-1.797c-3.953,0.25-7.438-3.391-7.438-3.391
		S3.437,9.707,0.093,1.848c-0.219-0.516,0.016-0.766,0.016-0.766S0.343,0.785,1,0.785l4.281-0.031
		c0.406,0.063,0.688,0.281,0.688,0.281s0.25,0.172,0.375,0.5c0.703,1.75,1.609,3.344,1.609,3.344
		c1.563,3.219,2.625,3.766,3.234,3.438c0,0,0.797-0.484,0.625-4.375c-0.063-1.406-0.453-2.047-0.453-2.047
		C11,1.41,10.328,1.27,10.031,1.223c-0.234-0.031,0.156-0.594,0.672-0.844c0.766-0.375,2.125-0.391,3.734-0.375
		c1.266,0.016,1.625,0.094,2.109,0.203c1.484,0.359,0.984,1.734,0.984,5.047c0,1.063-0.203,2.547,0.563,3.031
		c0.328,0.219,1.141,0.031,3.141-3.375c0,0,0.938-1.625,1.672-3.516c0.125-0.344,0.391-0.484,0.391-0.484s0.25-0.141,0.594-0.094
		l4.5-0.031c1.359-0.172,1.578,0.453,1.578,0.453C30.203,1.879,29.468,3.379,27.625,5.832z"/>
    </symbol>
		<symbol id="vk-cercl" viewBox="-1 -1 52 52">
			<path d="M25,0C11.192,0,0,11.193,0,25s11.192,25,25,25s25-11.193,25-25S38.808,0,25,0z M19.453,34.136h-5.156V18.651
	h5.156V34.136z M16.875,16.542h-0.031c-1.734,0-2.844-1.188-2.844-2.672c0-1.516,1.156-2.672,2.906-2.672
	c1.766,0,2.859,1.156,2.875,2.672C19.797,15.354,18.672,16.542,16.875,16.542z M38,34.136h-5.141v-8.281c0-2.078-0.75-3.5-2.609-3.5
	c-1.422,0-2.266,0.953-2.641,1.875c-0.125,0.344-0.172,0.797-0.172,1.266v8.641h-5.141c0.063-14.031,0-15.484,0-15.484h5.141v2.204
	c0.678-1.061,1.898-2.563,4.641-2.563c3.391,0,5.922,2.219,5.922,6.969V34.136z"/>
		</symbol>
		<symbol>
			
		</symbol>
		<symbol>
			
		</symbol>

<symbol id="in-cercl" viewBox="-1 -1 52 52">
     
<path d="M25,0C11.192,0,0,11.193,0,25s11.192,25,25,25s25-11.193,25-25S38.808,0,25,0z M19.453,34.136h-5.156V18.651
	h5.156V34.136z M16.875,16.542h-0.031c-1.734,0-2.844-1.188-2.844-2.672c0-1.516,1.156-2.672,2.906-2.672
	c1.766,0,2.859,1.156,2.875,2.672C19.797,15.354,18.672,16.542,16.875,16.542z M38,34.136h-5.141v-8.281c0-2.078-0.75-3.5-2.609-3.5
	c-1.422,0-2.266,0.953-2.641,1.875c-0.125,0.344-0.172,0.797-0.172,1.266v8.641h-5.141c0.063-14.031,0-15.484,0-15.484h5.141v2.204
	c0.678-1.061,1.898-2.563,4.641-2.563c3.391,0,5.922,2.219,5.922,6.969V34.136z"/>
</symbol>
<symbol  id="git-cercl" viewBox="-1 -1 52 52">
     
	<path d="M30.5,24.5c-1.031,0-2.016,0.188-3.047,0.328C26.641,24.953,25.828,25,25,25s-1.641-0.047-2.453-0.172
		C21.531,24.688,20.531,24.5,19.5,24.5c-2.547,0-4,2.109-4,4.5c0,4.781,4.375,5.516,8.188,5.516h2.625
		c3.813,0,8.188-0.734,8.188-5.516C34.5,26.609,33.047,24.5,30.5,24.5z M20,32c-1.406,0-2-1.859-2-3s0.594-3,2-3s2,1.859,2,3
		S21.406,32,20,32z M30,32c-1.406,0-2-1.859-2-3s0.594-3,2-3s2,1.859,2,3S31.406,32,30,32z"/>
	<path d="M25,0C11.192,0,0,11.193,0,25s11.192,25,25,25s25-11.193,25-25S38.808,0,25,0z M37.047,31.422
		C34.984,35.594,29.313,36,25.25,36c-4.125,0-10.141-0.359-12.281-4.578C12.172,29.844,12,27.984,12,26.25
		c0-2.281,0.625-4.438,2.125-6.188c-0.281-0.859-0.422-1.766-0.422-2.656c0-1.172,0.266-2.344,0.797-3.406
		c2.469,0,4.047,1.078,5.922,2.547C22,16.172,23.625,16,25.25,16c1.469,0,2.953,0.156,4.375,0.5c1.859-1.453,3.438-2.5,5.875-2.5
		c0.531,1.063,0.797,2.234,0.797,3.406c0,0.891-0.141,1.781-0.422,2.625C37.375,21.797,38,23.969,38,26.25
		C38,27.984,37.828,29.828,37.047,31.422z"/>

</symbol>
<symbol id="vk-cercl" viewBox="-1 -1 52 52">
   
<path d="M25,0C11.193,0,0,11.193,0,25c0,13.807,11.193,25,25,25c13.807,0,25-11.193,25-25C50,11.193,38.807,0,25,0z
	 M36.76,28.255c2.406,2.234,2.906,3.313,2.984,3.453c0,0,1,1.75-1.109,1.766l-4,0.063c-0.859,0.172-2-0.609-2-0.609
	c-1.5-1.031-2.906-3.703-4-3.359c0,0-1.125,0.359-1.094,2.766c0.016,0.516-0.234,0.797-0.234,0.797s-0.281,0.297-0.828,0.344h-1.797
	c-3.953,0.25-7.438-3.391-7.438-3.391s-3.813-3.938-7.156-11.797c-0.219-0.516,0.016-0.766,0.016-0.766s0.234-0.297,0.891-0.297
	l4.281-0.031c0.406,0.063,0.688,0.281,0.688,0.281s0.25,0.172,0.375,0.5c0.703,1.75,1.609,3.344,1.609,3.344
	c1.563,3.219,2.625,3.766,3.234,3.438c0,0,0.797-0.484,0.625-4.375c-0.063-1.406-0.453-2.047-0.453-2.047
	c-0.359-0.484-1.031-0.625-1.328-0.672c-0.234-0.031,0.156-0.594,0.672-0.844c0.766-0.375,2.125-0.391,3.734-0.375
	c1.266,0.016,1.625,0.094,2.109,0.203c1.484,0.359,0.984,1.734,0.984,5.047c0,1.063-0.203,2.547,0.563,3.031
	c0.328,0.219,1.141,0.031,3.141-3.375c0,0,0.938-1.625,1.672-3.516c0.125-0.344,0.391-0.484,0.391-0.484s0.25-0.141,0.594-0.094
	l4.5-0.031c1.359-0.172,1.578,0.453,1.578,0.453c0.234,0.641-0.5,2.141-2.344,4.594C34.588,26.302,34.26,25.927,36.76,28.255z"/>
</symbol> 

</svg>